.
 
http://www.scenetime.com    -   SceneTime [ We been having it ] !!!


How come you press harder on a remote control when you know the battery is dead? so you better seed to get speed ;)

        Seed back for speed


...................................NFO:.................................................[img]http://leetleech.org/images/86948575502665221480.png[/img]
[img]http://leetleech.org/images/78611106147491256361.png[/img]
[img]http://leetleech.org/images/19895202207640989681.png[/img]
[img]http://leetleech.org/images/95104628432150601709.png[/img]
[img]http://leetleech.org/images/07068932167915091169.png[/img]
[img]http://leetleech.org/images/07068932167915091169.png[/img]
General
Complete name                    : C:\Users\coop\Desktop\Thursday.1998.Dvd.Rip.Ac3.Xvid.TCM\T.TCM.avi
Format                           : AVI
Format/Info                      : Audio Video Interleave
File size                        : 1.23 GiB
Duration                         : 1h 27mn
Overall bit rate                 : 2 009 Kbps
Movie name                       : T.TCM
Encoded by                       : Cooperman
Writing application              : VirtualDubMod 1.5.4.1 (build 2178/release) 
Copyright                        : TCM

Video
ID                               : 0
Format                           : MPEG-4 Visual
Format profile                   : Advanced Simple@L5
Format settings, BVOP            : No
Format settings, QPel            : No
Format settings, GMC             : No warppoints
Format settings, Matrix          : Custom
Codec ID                         : XVID
Codec ID/Hint                    : XviD
Duration                         : 1h 27mn
Bit rate                         : 1 811 Kbps
Width                            : 720 pixels
Height                           : 304 pixels
Display aspect ratio             : 2.35:1
Frame rate                       : 23.976 fps
Color space                      : YUV
Chroma subsampling               : 4:2:0
Bit depth                        : 8 bits
Scan type                        : Progressive
Compression mode                 : Lossy
Bits/(Pixel*Frame)               : 0.345
Stream size                      : 1.11 GiB (90%)
Writing library                  : XviD 64

Audio
ID                               : 1
Format                           : AC-3
Format/Info                      : Audio Coding 3
Format profile                   : Dolby Digital
Mode extension                   : CM (complete main)
Codec ID                         : 2000
Duration                         : 1h 27mn
Bit rate mode                    : Constant
Bit rate                         : 192 Kbps
Channel(s)                       : 2 channels
Channel positions                : Front: L R
Sampling rate                    : 48.0 KHz
Bit depth                        : 16 bits
Compression mode                 : Lossy
Delay relative to video          : 5ms
Stream size                      : 120 MiB (10%)
Alignment                        : Split accross interleaves
Interleave, duration             : 96 ms (2.30 video frames)
Interleave, preload duration     : 96 ms
Language                         : English
Subs                             : No
Sample                           : Yes
 
http://www.imdb.com/title/tt0124901/

*source file ar was 4:3 and was recoded to 16:9 on avi*
source file : Thursday.1998.R1.NTSC.DVD5[no grp]
THANX WHO EVER ARE! :)

90x14.mb rars[main.movie.avi]
sample[avi]
snaps.n.thumbs
sfv
nfo
Enjoy the movie!
t.c.m@hushmail.com
GREATINGS TO ALL THE P2P PLACES I LURK AT!!
AND A FOOK YOU TO ALL RETAGERS!